<?xml version="1.0" encoding="UTF-8" standalone="no"?>
<svg
   xmlns:dc="http://purl.org/dc/elements/1.1/"
   xmlns:cc="http://creativecommons.org/ns#"
   xmlns:rdf="http://www.w3.org/1999/02/22-rdf-syntax-ns#"
   xmlns:svg="http://www.w3.org/2000/svg"
   xmlns="http://www.w3.org/2000/svg"
   xmlns:sodipodi="http://sodipodi.sourceforge.net/DTD/sodipodi-0.dtd"
   xmlns:inkscape="http://www.inkscape.org/namespaces/inkscape"
   version="1.0"
   width="454.000000pt"
   height="454.000000pt"
   viewBox="0 0 454.000000 454.000000"
   preserveAspectRatio="xMidYMid meet"
   id="svg8"
   sodipodi:docname="icon.svg"
   inkscape:version="0.92.4 (f8dce91, 2019-08-02)">
  <rect
     style="opacity:1;fill:#eeeeee;fill-opacity:1;fill-rule:nonzero;stroke:none;stroke-width:0.65770584;stroke-opacity:1"
     id="rect822"
     width="454"
     height="454"
     x="0"
     y="0" />
  <g
     transform="translate(0.000000,454.000000) scale(0.100000,-0.100000)"
     id="g6"
     stroke="none"
     fill="#222831">
    <path
       d="M0 2270 l0 -2270 2270 0 2270 0 0 2270 0 2270 -2270 0 -2270 0 0 -2270z m4380 0 l0 -2110 -2110 0 -2110 0 0 2110 0 2110 2110 0 2110 0 0 -2110z"
       id="path2"
       style="fill:#222831;fill-opacity:1" />
    <path
       d="M180 2270 l0 -2090 2090 0 2090 0 0 2090 0 2090 -2090 0 -2090 0 0 -2090z m4090 537 c0 -1609 3 -1516 -61 -1638 -151 -282 -576 -447 -992 -384 -460 69 -770 396 -683 721 116 438 816 654 1334 414 45 -22 95 -48 111 -59 16 -12 32 -21 35 -21 3 0 6 322 6 716 0 569 -3 715 -12 712 -7 -2 -457 -103 -1000 -224 l-988 -219 0 -990 c0 -1089 2 -1047 -61 -1166 -151 -282 -576 -447 -992 -384 -460 69 -770 396 -683 721 116 438 816 654 1334 414 45 -22 95 -48 111 -59 16 -12 32 -21 35 -21 3 0 6 547 6 1215 l0 1215 26 6 c14 4 515 116 1113 249 l1086 243 138 1 137 1 0 -1463z"
       id="path4"
       style="stroke:#00abbd;stroke-opacity:1;fill:#22285b;fill-opacity:1;fill-rule:nonzero" />
    <path
       style="opacity:1;fill:#222831;fill-opacity:1;fill-rule:nonzero;stroke:none;stroke-width:0.90685445;stroke-opacity:1"
       d="M 24.6473,302.65673 V 24.252411 H 302.59819 580.54908 V 302.65673 581.06105 H 302.59819 24.6473 Z m 150.28526,265.26422 c 28.95331,-4.11605 54.11295,-15.44115 71.31384,-32.10045 11.22049,-10.86721 19.24498,-24.24776 21.54343,-35.92292 0.78341,-3.97944 1.16801,-41.05715 1.43166,-138.02081 0.33695,-123.92308 0.46137,-132.61002 1.9055,-133.0444 0.84976,-0.2556 45.61813,-10.25529 99.48529,-22.22153 53.86715,-11.96624 112.59331,-25.04536 130.50259,-29.06471 17.90927,-4.01934 32.80436,-7.06598 33.10019,-6.77028 0.67605,0.67575 1.21166,188.10586 0.53754,188.10586 -0.27212,0 -3.64804,-1.83164 -7.50205,-4.0703 -41.28586,-23.98159 -98.14899,-25.42145 -141.80601,-3.59076 -36.78586,18.39479 -55.93168,51.19986 -47.99424,82.23493 8.33957,32.60741 42.8289,58.89383 88.00708,67.07554 14.91049,2.70027 39.68998,2.6716 54.82143,-0.0634 18.12198,-3.27556 36.70574,-10.25985 50.39328,-18.93915 17.47349,-11.08001 31.96674,-28.64905 35.81339,-43.4138 2.70481,-10.38203 3.14873,-41.51895 3.16595,-222.06261 l 0.0172,-180.464042 -19.25459,0.294681 -19.2546,0.294682 -107.47923,24.013676 c -59.11358,13.207486 -124.82282,27.888927 -146.02055,32.625389 -21.19772,4.736463 -39.25546,8.822304 -40.12831,9.079654 -1.49702,0.44138 -1.58703,5.36134 -1.58759,86.78468 -3.3e-4,47.47423 -0.27144,120.27295 -0.60247,161.77493 l -0.60187,75.45816 -3.70509,-2.30608 c -6.84277,-4.25901 -21.77112,-11.11241 -30.18572,-13.85787 -25.20775,-8.2246 -56.22107,-9.55781 -82.3419,-3.53975 -36.735693,8.46365 -63.994009,27.34813 -76.326589,52.87884 -12.542407,25.9651 -7.002221,52.5531 15.676093,75.23142 18.256956,18.25695 46.108896,30.54249 77.880726,34.35333 7.33828,0.88018 30.89043,0.42776 39.19559,-0.75292 z"
       id="path833"
       inkscape:connector-curvature="0"
       transform="matrix(7.5000003,0,0,-7.5000003,0,4540)" />
  </g>
</svg>
